<?xml version="1.0" standalone="no"?>
<!DOCTYPE svg PUBLIC "-//W3C//DTD SVG 20010904//EN"
 "http://www.w3.org/TR/2001/REC-SVG-20010904/DTD/svg10.dtd">
<svg version="1.0" xmlns="http://www.w3.org/2000/svg"
 width="700.000000pt" height="700.000000pt" viewBox="0 0 700.000000 700.000000"
 preserveAspectRatio="xMidYMid meet">
<metadata>
Created by potrace 1.11, written by Peter Selinger 2001-2013
</metadata>
<g transform="translate(0.000000,700.000000) scale(0.100000,-0.100000)"
fill="#000000" stroke="none">
<path d="M3427 6945 c-1 -2 -45 -5 -97 -9 -96 -6 -136 -11 -200 -23 -19 -3
-44 -8 -55 -10 -130 -23 -348 -99 -500 -173 -199 -97 -448 -275 -579 -415 -91
-97 -115 -125 -163 -187 -252 -326 -401 -707 -439 -1118 -4 -41 -7 -1166 -7
-2499 0 -2399 0 -2424 19 -2440 18 -15 212 -16 2097 -16 1937 0 2077 1 2093
17 16 16 17 113 18 1370 l1 1353 105 1 c136 1 168 8 211 44 70 57 73 71 74
390 1 299 -2 330 -45 388 -11 15 -36 36 -54 46 l-34 18 -4 147 c-3 131 -5 151
-27 194 -43 82 -146 167 -203 167 -9 0 -19 8 -21 18 -3 9 -5 181 -6 382 0 201
-2 385 -5 410 -14 139 -20 175 -41 275 -114 532 -428 997 -884 1307 -291 199
-653 328 -992 353 -86 7 -257 13 -262 10z m2272 -2909 c53 -46 68 -125 62
-323 -1 -22 -5 -23 -75 -23 l-74 0 3 198 c1 108 3 198 4 200 2 4 53 -29 80
-52z"/>
</g>
</svg>
