<?xml version="1.0" encoding="iso-8859-1"?>
<!-- Generator: Adobe Illustrator 19.0.0, SVG Export Plug-In . SVG Version: 6.00 Build 0)  -->
<svg version="1.1" id="Layer_1" xmlns="http://www.w3.org/2000/svg" xmlns:xlink="http://www.w3.org/1999/xlink" x="0px" y="0px"
	 viewBox="0 0 512.142 512.142" fill='white' style="enable-background:new 0 0 512.142 512.142;" xml:space="preserve">
<g>
	<g>
		<path d="M479.304,15.801c-2.539-9.237-10.965-15.659-20.565-15.659l-3.563-0.043c-16.149-0.277-58.731-1.003-111.339,14.443
			C226.568,48.953,144.605,154.745,138.952,277.475H53.405c-8.619,0-16.427,5.184-19.712,13.163
			c-3.307,7.979-1.472,17.152,4.629,23.253l192,192c4.16,4.16,9.621,6.251,15.083,6.251c5.461,0,10.923-2.091,15.083-6.251l192-192
			c6.101-6.101,7.936-15.275,4.629-23.253c-3.285-7.979-11.093-13.163-19.712-13.163H327.624
			c-4.075-41.472,0.085-153.216,142.037-237.675C477.896,34.894,481.864,25.081,479.304,15.801z"/>
	</g>
</g>
</svg>
