<?xml version="1.0" encoding="iso-8859-1"?>
<!-- Generator: Adobe Illustrator 19.0.0, SVG Export Plug-In . SVG Version: 6.00 Build 0)  -->
<svg version="1.1" id="Capa_1" xmlns="http://www.w3.org/2000/svg" xmlns:xlink="http://www.w3.org/1999/xlink" x="0px" y="0px"
	 viewBox="0 0 512 512" style="enable-background:new 0 0 512 512;" xml:space="preserve">
<path style="fill:white;" d="M10,360.386h141.614V502l310.734-310.734L502,230.918V10H281.081c0,0,21.638,21.638,39.652,39.652
	L10,360.386z"/>
<path d="M151.612,512c-1.288,0-2.588-0.249-3.825-0.761c-3.736-1.548-6.173-5.194-6.173-9.239V370.386H10
	c-4.045,0-7.691-2.437-9.239-6.173c-1.548-3.737-0.691-8.038,2.168-10.898L306.591,49.652l-32.581-32.58
	c-2.859-2.86-3.715-7.161-2.167-10.898C273.39,2.437,277.037,0,281.082,0H502c5.522,0,10,4.478,10,10v220.918
	c0,4.045-2.436,7.691-6.173,9.239c-3.737,1.545-8.039,0.692-10.898-2.168l-32.58-32.581L305.21,362.547
	c-3.906,3.904-10.236,3.904-14.143,0c-3.905-3.905-3.905-10.237,0-14.143l164.21-164.21c1.876-1.875,4.419-2.929,7.071-2.929
	s5.196,1.054,7.071,2.929l22.58,22.581V20H305.224l22.581,22.58c1.875,1.875,2.929,4.419,2.929,7.071s-1.054,5.195-2.929,7.071
	L34.142,350.386h117.472c5.522,0,10,4.478,10,10v117.472l78.953-78.953c3.906-3.904,10.236-3.904,14.143,0
	c3.905,3.905,3.905,10.237,0,14.143l-96.024,96.024C156.772,510.985,154.214,512,151.612,512z"/>
<path d="M272.305,391.309c-2.56,0-5.118-0.977-7.071-2.929c-3.905-3.905-3.905-10.237,0-14.143l0.583-0.583
	c3.906-3.904,10.236-3.904,14.143,0c3.905,3.905,3.905,10.237,0,14.143l-0.583,0.583
	C277.423,390.332,274.865,391.309,272.305,391.309z"/>
<path d="M240.705,191.215c-2.56,0-5.118-0.977-7.071-2.929c-3.905-3.905-3.905-10.237,0-14.143l53.981-53.981
	c3.906-3.904,10.236-3.904,14.143,0c3.905,3.905,3.905,10.237,0,14.143l-53.981,53.981
	C245.823,190.239,243.264,191.215,240.705,191.215z"/>
<path d="M317.687,114.233c-2.542,0-5.084-0.963-7.033-2.892c-3.926-3.885-3.96-10.216-0.075-14.142l0.092-0.093
	c3.885-3.926,10.218-3.958,14.142-0.075c3.926,3.885,3.96,10.216,0.075,14.142l-0.092,0.093
	C322.84,113.242,320.263,114.233,317.687,114.233z"/>
<g>
</g>
<g>
</g>
<g>
</g>
<g>
</g>
<g>
</g>
<g>
</g>
<g>
</g>
<g>
</g>
<g>
</g>
<g>
</g>
<g>
</g>
<g>
</g>
<g>
</g>
<g>
</g>
<g>
</g>
</svg>
