<svg id="Capa_1" enable-background="new 0 0 505.952 505.952" height="512" viewBox="0 0 505.952 505.952" width="512" xmlns="http://www.w3.org/2000/svg"><g><path d="m394.736 329.904 52.675-52.675 8.271-8.271c53.692-53.692 53.692-140.744 0-194.436-53.692-53.692-140.744-53.692-194.436 0l-8.271 8.271-8.271-8.271c-53.692-53.692-140.744-53.692-194.436 0-53.692 53.692-53.692 140.744 0 194.436l8.271 8.271 194.436 194.436 83.444-83.444" fill="#ff5c7d"/><g><path d="m462.753 67.451c-57.505-57.504-151.072-57.504-208.578 0l-1.2 1.2-1.2-1.2c-57.504-57.504-151.071-57.503-208.577.001-27.857 27.856-43.198 64.893-43.198 104.289 0 39.395 15.341 76.432 43.198 104.289l202.707 202.706c3.858 3.858 10.284 3.857 14.142 0l83.445-83.443c9.121-9.121-5.02-23.262-14.142-14.143l-76.374 76.373-195.636-195.636c-49.707-49.707-49.707-130.587 0-180.294 49.708-49.707 130.587-49.707 180.293 0l8.271 8.271c3.855 3.854 10.287 3.854 14.143 0l8.271-8.271c49.708-49.707 130.587-49.706 180.294.001 24.079 24.079 37.34 56.093 37.34 90.146s-13.261 66.067-37.341 90.146l-60.946 60.945c-9.121 9.122 5.022 23.265 14.142 14.143l60.946-60.945c27.857-27.857 43.199-64.895 43.199-104.29 0-39.394-15.342-76.431-43.199-104.288z"/><path d="m376.219 355.358c-1.637-3.932-5.719-6.462-9.971-6.145-4.173.311-7.777 3.281-8.895 7.31-2.398 8.649 7.454 15.884 14.995 11.096 4.057-2.576 5.69-7.827 3.871-12.261z"/></g></g></svg>