<svg height="512pt" viewBox="0 -37 512.00061 512" width="512pt" xmlns="http://www.w3.org/2000/svg"><g fill-rule="evenodd"><path d="m60.636719 211.289062 195.363281-143.742187 195.363281 143.742187 23.230469 17.09375 27.40625-37.386718-246-180.996094-246 180.996094 27.40625 37.386718zm0 0" fill="#858fa6"/><path d="m256 67.546875-195.363281 143.742187v216.847657h390.730469v-216.847657zm-82.023438 142.476563c22.648438-22.648438 59.375-22.648438 82.023438 0 22.648438-22.648438 59.375-22.648438 82.023438 0 22.652343 22.652343 22.652343 59.375 0 82.023437l-68.941407 68.945313c-7.195312 7.195312-18.96875 7.195312-26.164062 0l-68.941407-68.945313c-22.652343-22.648437-22.652343-59.371094 0-82.023437zm0 0" fill="#ffecd1"/><path d="m256 210.023438c-22.648438-22.648438-59.375-22.648438-82.023438 0-22.652343 22.652343-22.652343 59.375 0 82.023437l68.941407 68.945313c7.195312 7.195312 18.96875 7.195312 26.164062 0l68.941407-68.945313c22.652343-22.648437 22.652343-59.371094 0-82.023437-22.648438-22.648438-59.371094-22.648438-82.023438 0zm0 0" fill="#ff6977"/></g><path d="m507.925781 182.941406-246-180.996094c-3.523437-2.59375-8.324219-2.59375-11.851562 0l-90.785157 66.796876c-4.449218 3.273437-5.402343 9.53125-2.128906 13.980468 3.273438 4.449219 9.535156 5.398438 13.980469 2.128906l84.859375-62.4375 232.03125 170.722657-15.578125 21.253906-210.527344-154.894531c-3.523437-2.59375-8.324219-2.59375-11.851562 0l-210.527344 154.894531-15.578125-21.253906 82.734375-60.875c4.449219-3.273438 5.402344-9.53125 2.128906-13.980469-3.273437-4.449219-9.53125-5.398438-13.980469-2.128906l-90.777343 66.789062c-4.441407 3.269532-5.398438 9.519532-2.140625 13.96875l27.40625 37.386719c1.570312 2.140625 3.925781 3.570313 6.550781 3.972656.503906.074219 1.011719.113281 1.515625.113281 2.117188 0 4.195312-.671874 5.925781-1.945312l7.304688-5.375v197.074219c0 5.519531 4.476562 10 10 10h390.726562c5.523438 0 10-4.480469 10-10v-197.074219l7.304688 5.375c2.140625 1.570312 4.8125 2.230469 7.441406 1.828125 2.625-.402344 4.980469-1.832031 6.550781-3.972656l27.402344-37.382813c3.265625-4.449218 2.308594-10.699218-2.136719-13.96875zm-66.5625 235.195313h-370.726562v-201.789063l185.363281-136.382812 185.367188 136.382812v201.789063zm0 0"/><path d="m133 110.503906c2.257812 0 4.527344-.757812 6.398438-2.316406l.003906-.003906c4.242187-3.539063 4.8125-9.839844 1.277344-14.082032-3.535157-4.246093-9.84375-4.8125-14.085938-1.28125-4.242188 3.539063-4.816406 9.84375-1.28125 14.085938 1.976562 2.371094 4.820312 3.597656 7.6875 3.597656zm0 0"/><path d="m311.371094 378.132812h-.007813c-5.523437 0-9.996093 4.480469-9.996093 10 0 5.523438 4.480468 10 10.003906 10 5.523437 0 10-4.476562 10-10 0-5.519531-4.476563-10-10-10zm0 0"/><path d="m341.367188 388.132812c0 5.523438 4.476562 10 10 10h59.996093c5.523438 0 10-4.476562 10-10 0-5.519531-4.476562-10-10-10h-59.996093c-5.523438 0-10 4.480469-10 10zm0 0"/><path d="m214.988281 183.035156c-18.164062 0-35.238281 7.074219-48.082031 19.917969s-19.917969 29.921875-19.917969 48.082031c0 18.164063 7.074219 35.242188 19.917969 48.085938l68.941406 68.941406c5.554688 5.554688 12.855469 8.332031 20.152344 8.332031s14.597656-2.777343 20.152344-8.332031l68.941406-68.941406c12.84375-12.84375 19.917969-29.921875 19.917969-48.085938 0-18.160156-7.074219-35.238281-19.917969-48.082031s-29.917969-19.917969-48.082031-19.917969c-15.003907 0-29.265625 4.828125-41.011719 13.746094-11.746094-8.917969-26.007812-13.746094-41.011719-13.746094zm82.023438 20.003906c12.820312 0 24.875 4.992188 33.941406 14.058594 9.066406 9.0625 14.058594 21.117188 14.058594 33.9375 0 12.820313-4.992188 24.878906-14.058594 33.941406l-68.941406 68.941407c-3.316407 3.316406-8.707031 3.316406-12.023438 0l-68.941406-68.941407c-9.066406-9.0625-14.058594-21.121093-14.058594-33.941406 0-12.820312 4.992188-24.875 14.058594-33.9375 9.066406-9.066406 21.121094-14.058594 33.941406-14.058594 12.820313 0 24.875 4.992188 33.941407 14.058594 3.902343 3.902344 10.234374 3.902344 14.140624 0 9.066407-9.066406 21.121094-14.058594 33.941407-14.058594zm0 0"/></svg>