<svg id="Layer_1" enable-background="new 0 0 256 256" height="512" viewBox="0 0 256 256" width="512" xmlns="http://www.w3.org/2000/svg"><path d="m128 4c-41.578 0-75.284 33.706-75.284 75.284v172.716h150.568v-172.716c0-41.578-33.706-75.284-75.284-75.284z" fill="#fcc24c"/><path d="m128 4c-1.682 0-3.346.075-5 .184 39.245 2.576 70.284 35.204 70.284 75.1v172.716h10v-172.716c0-41.578-33.706-75.284-75.284-75.284z" fill="#dea42e"/><path d="m128 4c1.682 0 3.345.075 5 .184-39.245 2.576-70.284 35.204-70.284 75.1v172.716h-10v-172.716c0-41.578 33.706-75.284 75.284-75.284z" fill="#fce06a"/><path d="m107.721 78.437c-2.93 0-6.177 1.343-7.383 4.377l-22.646 57.015c-1.433 3.608.33 7.693 3.938 9.127.851.339 1.729.499 2.592.499 2.796 0 5.44-1.679 6.534-4.436l13.025-32.791v33.285l-8.506 93.032c-.588 6.429 4.167 12.425 10.598 13 .356.032.708.048 1.058.048 5.988 0 11.096-4.569 11.652-10.649l7.924-86.662c.076-.827.769-1.459 1.599-1.459.83 0 1.523.633 1.599 1.459l7.924 86.662c.556 6.08 5.664 10.649 11.652 10.649.357 0 .718-.017 1.081-.05 6.443-.588 11.188-6.289 10.599-12.732l-8.53-93.296v-32.934l12.885 32.437c1.095 2.757 3.738 4.436 6.534 4.436 1.082 0 2.187-.252 3.234-.791 3.254-1.677 4.546-5.689 3.194-9.091l-22.545-56.757c-1.197-3.014-3.877-4.385-7.32-4.385z" fill="#7bac51"/><path d="m102.282 238.544 8.506-93.032v-30.483c0-1.548-1.255-2.803-2.803-2.803h-4.204v33.285l-8.506 93.03c-.589 6.437 4.173 12.435 10.613 13.003.35.031.697.047 1.042.047 1.218 0 2.396-.198 3.51-.55-5.147-1.662-8.669-6.913-8.158-12.497z" fill="#99ca6f"/><path d="m152.429 145.515v-32.934h-4.204c-1.548 0-2.803 1.255-2.803 2.803v30.131l8.53 93.296c.512 5.597-3.004 10.628-8.159 12.24 1.107.347 2.277.542 3.485.542.357 0 .718-.017 1.081-.05 6.443-.588 11.188-6.289 10.599-12.732z" fill="#5d8e33"/><path d="m128.105 78.342c-10.737 0-19.441-8.817-19.441-19.693v-8.883c0-10.876 8.704-19.693 19.441-19.693 10.737 0 19.441 8.817 19.441 19.693v8.883c0 10.876-8.704 19.693-19.441 19.693z" fill="#f4efed"/><g fill="#690589"><path d="m128.105 80.342c-11.823 0-21.441-9.731-21.441-21.693v-8.883c0-11.962 9.618-21.693 21.441-21.693 11.822 0 21.44 9.731 21.44 21.693v8.883c.001 11.961-9.617 21.693-21.44 21.693zm0-48.27c-9.617 0-17.441 7.938-17.441 17.693v8.883c0 9.756 7.824 17.693 17.441 17.693s17.44-7.938 17.44-17.693v-8.883c.001-9.755-7.823-17.693-17.44-17.693z"/><path d="m149.28 253.593c-7.128 0-12.994-5.359-13.644-12.468l-7.531-82.365-7.531 82.365c-.688 7.517-7.227 13.102-14.882 12.411-3.556-.318-6.812-2.048-9.165-4.869-2.397-2.874-3.58-6.63-3.244-10.305l8.498-92.941v-22.741l-9.166 23.076c-1.374 3.462-4.669 5.698-8.393 5.698-1.143 0-2.265-.216-3.333-.641-4.625-1.838-6.894-7.097-5.057-11.724l22.646-57.014c1.36-3.426 4.988-5.64 9.241-5.64l40.69-.008c4.473 0 7.733 2.006 9.179 5.647l22.545 56.757c1.752 4.41-.065 9.509-4.136 11.607-1.306.673-2.702 1.014-4.15 1.014-3.724 0-7.018-2.236-8.393-5.698l-9.025-22.722v22.39l8.522 93.205c.333 3.647-.773 7.208-3.117 10.022-2.344 2.815-5.644 4.55-9.292 4.883-.423.04-.845.061-1.262.061zm-21.175-102.772c1.876 0 3.42 1.409 3.591 3.277l7.924 86.663c.487 5.331 5.127 9.286 10.559 8.789 2.585-.236 4.922-1.464 6.582-3.458s2.444-4.516 2.208-7.1l-8.53-93.297c-.005-.061-.008-.121-.008-.182v-32.934c0-.96.682-1.784 1.624-1.965.945-.173 1.881.335 2.235 1.227l12.884 32.437c.766 1.929 2.602 3.175 4.676 3.175.805 0 1.585-.191 2.318-.569 2.263-1.166 3.252-4.055 2.251-6.575l-22.545-56.757c-.823-2.073-2.661-3.124-5.461-3.124l-40.689.008h-.001c-1.978 0-4.611.816-5.524 3.116l-22.646 57.014c-1.023 2.576.241 5.506 2.817 6.53.596.237 1.22.357 1.854.357 2.074 0 3.91-1.246 4.675-3.175l13.025-32.791c.355-.892 1.291-1.402 2.235-1.227.942.181 1.624 1.005 1.624 1.965v33.285c0 .061-.003.121-.008.182l-8.506 93.032c-.24 2.626.61 5.315 2.331 7.379 1.669 2 3.96 3.225 6.453 3.447 5.459.5 10.053-3.466 10.54-8.791l7.924-86.661c.168-1.868 1.712-3.277 3.588-3.277z"/><path d="m203.284 254h-150.568c-1.104 0-2-.895-2-2v-172.716c0-42.614 34.669-77.284 77.284-77.284s77.284 34.67 77.284 77.284v172.716c0 1.105-.895 2-2 2zm-148.568-4h146.568v-170.716c0-40.409-32.875-73.284-73.284-73.284s-73.284 32.875-73.284 73.284z"/><path d="m60.716 110.201c-1.104 0-2-.896-2-2v-12c0-1.104.896-2 2-2s2 .896 2 2v12c0 1.105-.896 2-2 2z"/></g><path d="m212.595 151.727h-18.622c-2.761 0-5-2.239-5-5v-18.622c0-2.761 2.239-5 5-5h18.622c2.761 0 5 2.239 5 5v18.622c0 2.761-2.239 5-5 5z" fill="#ff4397"/><path d="m212.7 125.105h-18.832c-1.105 0-2-.896-2-2v-9.416c0-6.295 5.121-11.416 11.416-11.416s11.416 5.121 11.416 11.416v9.416c0 1.105-.895 2-2 2zm-16.832-4h14.832v-7.416c0-4.089-3.327-7.416-7.416-7.416s-7.416 3.327-7.416 7.416z" fill="#690589"/><path d="m212.595 123.105h-5c2.762 0 5 2.239 5 5v18.622c0 2.761-2.238 5-5 5h5c2.762 0 5-2.239 5-5v-18.622c0-2.761-2.239-5-5-5z" fill="#e12579"/><path d="m193.973 151.727h5c-2.761 0-5-2.239-5-5v-18.622c0-2.761 2.239-5 5-5h-5c-2.761 0-5 2.238-5 5v18.622c0 2.761 2.239 5 5 5z" fill="#ff61b5"/><path d="m212.595 153.727h-18.622c-3.86 0-7-3.141-7-7v-18.621c0-3.859 3.14-7 7-7h18.622c3.86 0 7 3.141 7 7v18.621c0 3.859-3.14 7-7 7zm-18.622-28.622c-1.654 0-3 1.346-3 3v18.621c0 1.654 1.346 3 3 3h18.622c1.654 0 3-1.346 3-3v-18.621c0-1.654-1.346-3-3-3z" fill="#690589"/><path d="m203.284 144.061c-1.105 0-2-.896-2-2v-7.925c0-1.104.895-2 2-2 1.104 0 2 .896 2 2v7.925c0 1.104-.895 2-2 2z" fill="#690589"/><path d="m205.615 136.136h-4.662c-1.105 0-2-.895-2-2 0-1.104.895-2 2-2h4.662c1.105 0 2 .896 2 2s-.895 2-2 2z" fill="#690589"/></svg>