<svg height="512" viewBox="0 0 60 60" width="512" xmlns="http://www.w3.org/2000/svg"><g id="Page-1" fill="none" fill-rule="evenodd"><g id="030---Messy-Books" fill-rule="nonzero"><g id="Icons" transform="translate(1)"><path id="Shape" d="m52.44 45.3c0 .22 0 .44-.06.65l-.05.26c-.4927659 2.7920091-2.6210055 5.0110642-5.39 5.62-.8897044.2052798-1.812082.2257014-2.71.06l-6.88-1.21-17.29-3-7.33-1.29c-.662209-.1222169-1.2184596-.5694725-1.48-1.19-.1841867-.3714168-.2404378-.7932999-.16-1.2.1716094-.9661687 1.0188257-1.6651221 2-1.65.1164575-.0098808.2335425-.0098808.35 0l6.65 1.17 24.71 4.41c1.4331211.2838444 2.8677442-.4815667 3.43-1.83.3471834-.837182.2972863-1.7864447-.1357527-2.582615s-1.2027979-1.3538984-2.0942473-1.517385l-8.61-1.52-22.89-4c-1.1045695-.0938884-1.9238884-1.0654305-1.83-2.17s1.0654305-1.9238884 2.17-1.83c.1164575-.0098808.2335425-.0098808.35 0l31.28 5.51c3.5369202.6027745 6.0859581 3.7239583 5.97 7.31z" fill="#6a1b9a"/><path id="Shape" d="m48.23 46.1c-.5622558 1.3484333-1.9968789 2.1138444-3.43 1.83l-24.73-4.36-6.66-1.17 1-5.91 22.89 4 8.7 1.51c.8914494.1634866 1.6612083.7212147 2.0942473 1.517385s.4829361 1.745433.1357527 2.582615z" fill="#ffeb3a"/><path id="Shape" d="m58 13.78c-.0118966.3086191-.0453111.6160322-.1.92l-5.52 31.3c0-.21 0-.43.06-.65.0782385-3.5694412-2.4781046-6.6540952-6-7.24l-31.3-5.56c-.1164575-.0098808-.2335425-.0098808-.35 0-.9811743-.0151221-1.8283906.6838313-2 1.65l4-22.51 1.59-9c.0942165-.52322425.3928761-.98740607.83-1.29.4200163-.33357513.9593933-.47837432 1.49-.4l31.3 5.55c3.5226499.57738422 6.0819037 3.661285 6 7.23z" fill="#9d27b0"/><path id="Shape" d="m52 6.55-31.3-5.55c-.4853015-.08905288-.9862805.01114293-1.4.28l29.7 5.27c3.5226499.57738422 6.0819037 3.661285 6 7.23-.0118966.3086191-.0453111.6160322-.1.92l-4.5 25.44c1.3605826 1.363552 2.0862117 3.2356751 2 5.16 0 .22 0 .44-.06.65l5.55-31.25c.0546889-.3039678.0881034-.6113809.1-.92.0826469-3.5654847-2.471337-6.64817315-5.99-7.23z" fill="#6a1b9a"/><rect id="Rectangle-path" fill="#f5f5f5" height="12" rx="1" transform="matrix(.985 .174 -.174 .985 4.683 -5.073)" width="23" x="19.831" y="18.226"/><path id="Shape" d="m46.94 51.83c-.1857191.771023-.8094746 1.3594717-1.59 1.5l-31.52 5.56c-1.8644672.3278825-3.7822399-.113373-5.31592477-1.2231277-1.53368484-1.1097548-2.55249808-2.7933754-2.82407523-4.6668723-.03864688-.234906-.06202922-.4720696-.07-.71-.07916332-3.4156955 2.27255061-6.4087859 5.61-7.14.2615404.6205275.817791 1.0677831 1.48 1.19l7.29 1.29-7.9 1.37c-.8876019.1541477-1.6589435.6990183-2.10088983 1.4840546-.44194638.7850363-.50770666 1.727123-.17911017 2.5659454.5656214 1.3511449 2.0021594 2.1195258 3.44 1.84l24.09-4.25 6.88 1.21c.895184.1788529 1.8175532.1720458 2.71-.02z" fill="#4527a0"/><path id="Shape" d="m37.35 50.68-24.09 4.25c-1.4378406.2795258-2.8743786-.4888551-3.44-1.84-.34350783-.8433355-.28537932-1.7970444.15800779-2.5924186.44338711-.7953743 1.22403381-1.3463103 2.12199221-1.4975814l7.9-1.37z" fill="#ffeb3a"/><path id="Shape" d="m14.45 36.49-1 5.91c-.1164575-.0098808-.2335425-.0098808-.35 0-.9811743-.0151221-1.8283906.6838313-2 1.65-.0712635.3820826-.0223529.776861.14 1.13-3.33744939.7312141-5.68916332 3.7243045-5.61 7.14.00797078.2379304.03135312.475094.07.71l-5.53-31.33c-.05359011-.3041252-.08699643-.6114633-.1-.92-.08190368-3.568715 2.47735007-6.6526158 6-7.23l10.71-1.89-4 22.51c-.0921597.529903.0329974 1.0745917.3472204 1.5111172.3142231.4365254.7910247.7280907 1.3227796.8088828z" fill="#673ab7"/></g><g id="Icons_copy" fill="#000"><path id="Shape" d="m23.61 7.46 22.65 4h.18c.5522847.0469442 1.0380558-.3627153 1.085-.915.0469442-.55228475-.3627153-1.0380558-.915-1.085l-22.61-3.96c-.3572656-.06252148-.7207474.07030521-.9535254.34844555s-.2994876.65933819-.175 1.00000001.4212598.58903297.7785254.65155444z"/><path id="Shape" d="m27 11.11c-.3572656-.0625215-.7207474.0703052-.9535254.3484456-.232778.2781403-.2994876.6593381-.175 1 .1244876.3406618.4212598.5890329.7785254.6515544l14.78 2.61h.17c.5522847.0469442 1.0380558-.3627153 1.085-.915s-.3627153-1.0380558-.915-1.085z"/><path id="Shape" d="m20.78 29.3 20.68 3.7c.1164575.0098808.2335425.0098808.35 0 .9811743.0151221 1.8283906-.6838313 2-1.65l1.74-9.85c.0825609-.5293756-.0507296-1.0697427-.37-1.5-.3025939-.4371239-.7667758-.7357835-1.29-.83l-20.68-3.65c-.5239926-.0940192-1.0638469.0247487-1.5.33-.4333537.304467-.7282501.7683895-.82 1.29l-1.73 9.86c-.1876668 1.0845989.5363409 2.1169803 1.62 2.31zm2.08-11.81 20.68 3.64-1.73 9.87-20.69-3.67z"/><path id="Shape" d="m5.76 53.45c.79590311 4.3143292 4.9179422 7.1828044 9.24 6.43l31.52-5.57c.9438384-.1685073 1.7502851-.7779877 2.17-1.64 2.8927236-.8504792 5.0615601-3.2551428 5.61-6.22 0 0 0 0 0-.06l5.56-31.52c.0563779-.3308692.0931089-.6647872.11-1 .1167068-4.07996876-2.8098031-7.61402893-6.84-8.26l-31.26-5.56c-.7757673-.14096248-1.5756444.03558696-2.22.49-.6586817.45411876-1.1086862 1.15252566-1.25 1.94l-1.47 8.32-10 1.76c-4.034304.6365139-6.97018798 4.1672782-6.86 8.25.0152531.3556977.05535082.7098943.12 1.06l5.55 31.51c.00037711.0246888.00727707.0488386.02.07zm8.9 4.46c-1.7036155.289977-3.4499929-.1611705-4.8-1.24-1.35489147-1.0766788-2.17285963-2.6907053-2.24-4.42-.06870373-2.6835553 1.63628578-5.0925142 4.19-5.92.4454489.5212338 1.0560027.874155 1.73 1l1.77.31-2.38.43c-1.1735948.2164397-2.189254.945588-2.7696347 1.9883387-.58038076 1.0427507-.66485855 2.2901819-.2303653 3.4016613.6054066 1.5444107 2.1012354 2.5548908 3.76 2.54.2478612-.0004978.4952963-.0205601.74-.06l23.92-4.24 5.75 1zm17.93-7.23-18.5 3.32c-.9663508.1890343-1.9356522-.3121856-2.34-1.21-.2534147-.5689877-.2272701-1.2235592.0707174-1.7705231s.8337947-.9238698 1.4492826-1.0194769l7.78-1.37zm17.6-1c-1.3455955 1.079546-3.0907545 1.5276766-4.79 1.23l-31.51-5.56c-.2626285-.0446331-.4965931-.1922107-.65-.41-.1508827-.2188035-.2084545-.4886712-.16-.75.0471064-.2589807.1944264-.4889436.41-.64.1672045-.1167107.366092-.1795172.57-.18h.17l31.4 5.54c1.5435888.3247015 3.1338659-.2880631 4.0604743-1.5645796.9266084-1.2765164 1.0165017-2.9783922.2295257-4.3454204-.5799903-1.0497071-1.6003695-1.7837928-2.78-2l-31.52-5.5c-.261292-.0463079-.493464-.1945721-.6453883-.4121427-.1519242-.2175705-.2111417-.4866048-.1646117-.7478573.0471064-.2589807.1944264-.4889436.41-.64.2195063-.1494725.4874974-.2102172.75-.17l31.27 5.52c3.0403332.4747136 5.2618551 3.1234511 5.2 6.2-.0653807 1.7348295-.8876967 3.3538783-2.25 4.43zm-3.4-6.68c.5898153.1081036 1.1000049.4751464 1.39 1 .2977672.5257701.3418746 1.1579758.12 1.72-.373951.9111842-1.3285532 1.4424411-2.3 1.28l-30.44-5.41.7-3.94zm-26.42-40.17c.0470909-.26425334.1984384-.49848156.42-.65.2132696-.15525592.4792471-.21995313.74-.18l29.54 5.23-.9 5.14c-.0432206.2626722.0200752.5317362.1758667.7475919s.391219.3606854.6541333.4024081c.0562512.009704.1137488.009704.17 0 .4921797.0071559.9163726-.3449242 1-.83l.83-5.09c2.946801.5436858 5.0644483 3.1441568 5 6.14-.0113013.2646635-.0380132.5284438-.08.79l-4.66 26.36c-1.2189399-1.9438403-3.1815861-3.3028734-5.43-3.76l3.24-18.44c.0938884-.5522847-.2777153-1.0761116-.83-1.17s-1.0761116.2777153-1.17.83l-3.21 18.42-29.54-5.21c-.3308361-.0577028-.6691639-.0577028-1 0zm-18.3 17.9c-.07210873-3.0731292 2.14303116-5.724455 5.18-6.2l9.31-1.64-3.72 21.11c-.2146849 1.2481393.3775582 2.4966516 1.48 3.12l-.76 4.3c-1.2474068.2122656-2.227517 1.184375-2.45 2.43-.0197973.2028514-.0197973.4071486 0 .61-1.78483483.6200918-3.30506042 1.8299233-4.31 3.43l-4.64-26.35c-.05082399-.267278-.0809136-.5380845-.09-.81z"/></g></g></g></svg>